<svg width="24" height="24" viewBox="0 0 24 24" fill="none" xmlns="http://www.w3.org/2000/svg">
<path d="M21.75 10.2V16.8C21.75 17.3642 21.7498 17.7723 21.7236 18.0932C21.6976 18.4113 21.6473 18.6217 21.5593 18.7945C21.3915 19.1238 21.1238 19.3915 20.7945 19.5593C20.6217 19.6473 20.4113 19.6976 20.0932 19.7236C19.7723 19.7498 19.3642 19.75 18.8 19.75H5.2C4.63582 19.75 4.22772 19.7498 3.90676 19.7236C3.58872 19.6976 3.37831 19.6473 3.20552 19.5593C2.87623 19.3915 2.60852 19.1238 2.44074 18.7945C2.3527 18.6217 2.3024 18.4113 2.27642 18.0932C2.25019 17.7723 2.25 17.3642 2.25 16.8V7.2C2.25 6.63582 2.25019 6.22772 2.27642 5.90676C2.3024 5.58872 2.3527 5.37831 2.44074 5.20552C2.60852 4.87623 2.87623 4.60852 3.20552 4.44074C3.37831 4.3527 3.58872 4.3024 3.90676 4.27642C4.22772 4.25019 4.63582 4.25 5.2 4.25H8.28741C8.92912 4.25 9.19789 4.25255 9.43816 4.32551C9.65829 4.39237 9.86308 4.50197 10.0408 4.64804C10.2348 4.80749 10.386 5.0297 10.742 5.56363L10.842 5.71372C10.8503 5.72619 10.8586 5.73855 10.8667 5.75078C11.1904 6.23637 11.3833 6.52586 11.6417 6.73823C11.8702 6.92604 12.1335 7.06696 12.4166 7.15291C12.7366 7.2501 13.0845 7.25006 13.6681 7.25L13.7126 7.25H18.8C19.3642 7.25 19.7723 7.25019 20.0932 7.27642C20.4113 7.3024 20.6217 7.3527 20.7945 7.44074C21.1238 7.60852 21.3915 7.87623 21.5593 8.20552C21.6473 8.37831 21.6976 8.58872 21.7236 8.90676C21.7498 9.22772 21.75 9.63582 21.75 10.2Z" fill="url(#paint0_linear)" stroke="#CC6F33" stroke-width="0.5"/>
<path d="M15.8762 14.892L15.8827 14.8909L14.9275 9.23535L9.64523 10.9348L10.4356 15.9932C10.1634 15.8189 9.83887 15.7483 9.52002 15.794C9.20116 15.8397 8.90874 15.9987 8.695 16.2426C8.48125 16.4865 8.36011 16.7995 8.35322 17.1255C8.34632 17.4516 8.45413 17.7695 8.65737 18.0224C8.86062 18.2754 9.14606 18.4469 9.46269 18.5064C9.77932 18.5659 10.1065 18.5094 10.3858 18.3471C10.6651 18.1848 10.8783 17.9271 10.9873 17.6203C11.0964 17.3134 11.0941 16.9773 10.981 16.672L10.9858 16.6712L10.1376 11.2426L14.5799 9.81346L15.335 14.2841C15.0563 14.1172 14.7278 14.0569 14.4089 14.1142C14.0901 14.1714 13.8021 14.3425 13.5971 14.5963C13.392 14.8501 13.2836 15.1699 13.2914 15.4978C13.2992 15.8256 13.4227 16.1397 13.6395 16.3833C13.8564 16.6268 14.1522 16.7836 14.4734 16.8253C14.7946 16.867 15.1199 16.7907 15.3903 16.6104C15.6608 16.4301 15.8585 16.1576 15.9476 15.8424C16.0368 15.5271 16.0114 15.1899 15.8762 14.892V14.892Z" fill="#41414D" fill-opacity="0.4"/>
<path d="M15.5233 14.6566L15.5298 14.6555L14.5746 9L9.29233 10.6994L10.0827 15.7578C9.81048 15.5835 9.48597 15.5129 9.16711 15.5586C8.84826 15.6043 8.55584 15.7633 8.34209 16.0073C8.12835 16.2512 8.0072 16.5641 8.00031 16.8902C7.99342 17.2162 8.10123 17.5341 8.30447 17.7871C8.50771 18.04 8.79315 18.2116 9.10978 18.2711C9.42642 18.3305 9.75361 18.2741 10.0329 18.1117C10.3122 17.9494 10.5254 17.6918 10.6344 17.3849C10.7435 17.0781 10.7412 16.7419 10.628 16.4366L10.6329 16.4358L9.78471 11.0073L14.227 9.5781L14.9821 14.0488C14.7034 13.8819 14.3749 13.8216 14.056 13.8788C13.7372 13.9361 13.4492 14.1071 13.2442 14.361C13.0391 14.6148 12.9307 14.9346 12.9385 15.2624C12.9463 15.5902 13.0698 15.9044 13.2866 16.1479C13.5035 16.3915 13.7993 16.5483 14.1205 16.59C14.4417 16.6316 14.767 16.5554 15.0374 16.3751C15.3079 16.1947 15.5056 15.9223 15.5947 15.607C15.6839 15.2918 15.6585 14.9546 15.5233 14.6566V14.6566Z" fill="white"/>
<defs>
<linearGradient id="paint0_linear" x1="12" y1="4" x2="20" y2="21" gradientUnits="userSpaceOnUse">
<stop stop-color="#CC9833"/>
<stop offset="1" stop-color="#CC6F33"/>
</linearGradient>
</defs>
</svg>
