<svg width="24" height="24" viewBox="0 0 24 24" fill="none" xmlns="http://www.w3.org/2000/svg">
<path d="M2 7.2C2 6.07989 2 5.51984 2.21799 5.09202C2.40973 4.71569 2.71569 4.40973 3.09202 4.21799C3.51984 4 4.07989 4 5.2 4H8.28741C8.91355 4 9.22663 4 9.5108 4.0863C9.76238 4.1627 9.99643 4.28796 10.1996 4.45491C10.429 4.64349 10.6027 4.90398 10.95 5.42496L11.05 5.57504C11.3973 6.09602 11.571 6.35651 11.8004 6.54509C12.0036 6.71204 12.2376 6.8373 12.4892 6.9137C12.7734 7 13.0864 7 13.7126 7H18.8C19.9201 7 20.4802 7 20.908 7.21799C21.2843 7.40973 21.5903 7.71569 21.782 8.09202C22 8.51984 22 9.07989 22 10.2V16.8C22 17.9201 22 18.4802 21.782 18.908C21.5903 19.2843 21.2843 19.5903 20.908 19.782C20.4802 20 19.9201 20 18.8 20H5.2C4.0799 20 3.51984 20 3.09202 19.782C2.71569 19.5903 2.40973 19.2843 2.21799 18.908C2 18.4802 2 17.9201 2 16.8V7.2Z" fill="url(#paint0_linear)"/>
<path d="M15.8762 14.892L15.8827 14.8909L14.9275 9.23535L9.64523 10.9348L10.4356 15.9932C10.1634 15.8189 9.83887 15.7483 9.52002 15.794C9.20116 15.8397 8.90874 15.9987 8.695 16.2426C8.48125 16.4865 8.36011 16.7995 8.35322 17.1255C8.34632 17.4516 8.45413 17.7695 8.65737 18.0224C8.86062 18.2754 9.14606 18.4469 9.46269 18.5064C9.77932 18.5659 10.1065 18.5094 10.3858 18.3471C10.6651 18.1848 10.8783 17.9271 10.9873 17.6203C11.0964 17.3134 11.0941 16.9773 10.981 16.672L10.9858 16.6712L10.1376 11.2426L14.5799 9.81346L15.335 14.2841C15.0563 14.1172 14.7278 14.0569 14.4089 14.1142C14.0901 14.1714 13.8021 14.3425 13.5971 14.5963C13.392 14.8501 13.2836 15.1699 13.2914 15.4978C13.2992 15.8256 13.4227 16.1397 13.6395 16.3833C13.8564 16.6268 14.1522 16.7836 14.4734 16.8253C14.7946 16.867 15.1199 16.7907 15.3903 16.6104C15.6608 16.4301 15.8585 16.1576 15.9476 15.8424C16.0368 15.5271 16.0114 15.1899 15.8762 14.892V14.892Z" fill="#41414D" fill-opacity="0.4"/>
<path d="M15.5233 14.6566L15.5298 14.6555L14.5746 9L9.29233 10.6994L10.0827 15.7578C9.81048 15.5835 9.48597 15.5129 9.16711 15.5586C8.84826 15.6043 8.55584 15.7633 8.34209 16.0073C8.12835 16.2512 8.0072 16.5641 8.00031 16.8902C7.99342 17.2162 8.10123 17.5341 8.30447 17.7871C8.50771 18.04 8.79315 18.2116 9.10978 18.2711C9.42642 18.3305 9.75361 18.2741 10.0329 18.1117C10.3122 17.9494 10.5254 17.6918 10.6344 17.3849C10.7435 17.0781 10.7412 16.7419 10.628 16.4366L10.6329 16.4358L9.78471 11.0073L14.227 9.5781L14.9821 14.0488C14.7034 13.8819 14.3749 13.8216 14.056 13.8788C13.7372 13.9361 13.4492 14.1071 13.2442 14.361C13.0391 14.6148 12.9307 14.9346 12.9385 15.2624C12.9463 15.5902 13.0698 15.9044 13.2866 16.1479C13.5035 16.3915 13.7993 16.5483 14.1205 16.59C14.4417 16.6316 14.767 16.5554 15.0374 16.3751C15.3079 16.1947 15.5056 15.9223 15.5947 15.607C15.6839 15.2918 15.6585 14.9546 15.5233 14.6566V14.6566Z" fill="white"/>
<defs>
<linearGradient id="paint0_linear" x1="12" y1="4" x2="20" y2="21" gradientUnits="userSpaceOnUse">
<stop stop-color="#494D4B"/>
<stop offset="1" stop-color="#494D4B"/>
</linearGradient>
</defs>
</svg>
