<svg width="17" height="17" viewBox="0 0 17 17" fill="none" xmlns="http://www.w3.org/2000/svg">
<path d="M8.25 4.5C6.18 4.5 4.5 6.18 4.5 8.25C4.5 10.32 6.18 12 8.25 12C10.32 12 12 10.32 12 8.25C12 6.18 10.32 4.5 8.25 4.5ZM0.75 9H2.25C2.6625 9 3 8.6625 3 8.25C3 7.8375 2.6625 7.5 2.25 7.5H0.75C0.3375 7.5 0 7.8375 0 8.25C0 8.6625 0.3375 9 0.75 9ZM14.25 9H15.75C16.1625 9 16.5 8.6625 16.5 8.25C16.5 7.8375 16.1625 7.5 15.75 7.5H14.25C13.8375 7.5 13.5 7.8375 13.5 8.25C13.5 8.6625 13.8375 9 14.25 9ZM7.5 0.75V2.25C7.5 2.6625 7.8375 3 8.25 3C8.6625 3 9 2.6625 9 2.25V0.75C9 0.3375 8.6625 0 8.25 0C7.8375 0 7.5 0.3375 7.5 0.75ZM7.5 14.25V15.75C7.5 16.1625 7.8375 16.5 8.25 16.5C8.6625 16.5 9 16.1625 9 15.75V14.25C9 13.8375 8.6625 13.5 8.25 13.5C7.8375 13.5 7.5 13.8375 7.5 14.25ZM3.7425 2.685C3.45 2.3925 2.97 2.3925 2.685 2.685C2.3925 2.9775 2.3925 3.4575 2.685 3.7425L3.48 4.5375C3.7725 4.83 4.2525 4.83 4.5375 4.5375C4.8225 4.245 4.83 3.765 4.5375 3.48L3.7425 2.685ZM13.02 11.9625C12.7275 11.67 12.2475 11.67 11.9625 11.9625C11.67 12.255 11.67 12.735 11.9625 13.02L12.7575 13.815C13.05 14.1075 13.53 14.1075 13.815 13.815C14.1075 13.5225 14.1075 13.0425 13.815 12.7575L13.02 11.9625ZM13.815 3.7425C14.1075 3.45 14.1075 2.97 13.815 2.685C13.5225 2.3925 13.0425 2.3925 12.7575 2.685L11.9625 3.48C11.67 3.7725 11.67 4.2525 11.9625 4.5375C12.255 4.8225 12.735 4.83 13.02 4.5375L13.815 3.7425ZM4.5375 13.02C4.83 12.7275 4.83 12.2475 4.5375 11.9625C4.245 11.67 3.765 11.67 3.48 11.9625L2.685 12.7575C2.3925 13.05 2.3925 13.53 2.685 13.815C2.9775 14.1 3.4575 14.1075 3.7425 13.815L4.5375 13.02Z" fill="#F5F5F5"/>
</svg>
