<svg width="859" height="258" viewBox="0 0 859 258" fill="none" xmlns="http://www.w3.org/2000/svg">
<rect width="859" height="258" rx="10" fill="url(#paint0_linear)"/>
<path d="M477.398 142.035L477.482 142.02L465.115 69L396.731 90.9417L406.963 156.253C403.439 154.003 399.238 153.091 395.11 153.681C390.982 154.271 387.196 156.324 384.429 159.474C381.662 162.623 380.093 166.663 380.004 170.873C379.915 175.083 381.31 179.187 383.942 182.454C386.573 185.72 390.268 187.935 394.367 188.702C398.467 189.47 402.702 188.741 406.318 186.645C409.934 184.549 412.694 181.223 414.106 177.261C415.517 173.299 415.488 168.959 414.023 165.017L414.086 165.007L403.105 94.9168L460.616 76.4641L470.392 134.187C466.783 132.032 462.53 131.253 458.402 131.992C454.275 132.732 450.546 134.94 447.892 138.217C445.237 141.495 443.834 145.624 443.934 149.856C444.035 154.089 445.634 158.145 448.441 161.29C451.249 164.434 455.078 166.459 459.236 166.997C463.395 167.535 467.606 166.551 471.107 164.222C474.609 161.894 477.168 158.376 478.322 154.306C479.477 150.235 479.149 145.882 477.398 142.035V142.035Z" fill="white"/>
<defs>
<linearGradient id="paint0_linear" x1="429.5" y1="0" x2="429.5" y2="258" gradientUnits="userSpaceOnUse">
<stop stop-color="#FFA800"/>
<stop offset="1" stop-color="#FF6400"/>
</linearGradient>
</defs>
</svg>
