<svg width="138" height="138" viewBox="0 0 138 138" fill="none" xmlns="http://www.w3.org/2000/svg">
<rect width="138" height="138" rx="10" fill="#FF8600"/>
<path d="M100.948 77.0814L101.004 77.0718L92.8838 29L47.9848 43.4449L54.7027 86.4415C52.3891 84.9601 49.6307 84.3599 46.9205 84.7484C44.2102 85.1368 41.7246 86.4884 39.9078 88.5618C38.0909 90.6351 37.0612 93.2951 37.0026 96.0665C36.9441 98.8379 37.8604 101.54 39.588 103.69C41.3155 105.84 43.7418 107.299 46.4332 107.804C49.1245 108.31 51.9057 107.83 54.2797 106.45C56.6538 105.07 58.4661 102.88 59.3928 100.272C60.3195 97.6636 60.3002 94.8066 59.3384 92.2113L59.3797 92.2047L52.17 46.0619L89.9294 33.9139L96.3481 71.9147C93.979 70.4958 91.1864 69.9832 88.4763 70.47C85.7662 70.9567 83.3179 72.4106 81.5753 74.5681C79.8327 76.7256 78.9109 79.444 78.9771 82.2305C79.0434 85.017 80.0932 87.6873 81.9363 89.7574C83.7794 91.8275 86.2939 93.1605 89.024 93.5147C91.7541 93.8688 94.5191 93.2208 96.818 91.688C99.1169 90.1553 100.797 87.8392 101.555 85.1595C102.313 82.4799 102.098 79.614 100.948 77.0814Z" fill="#41414D" fill-opacity="0.4"/>
<path d="M97.9482 75.0814L98.0035 75.0718L89.8838 27L44.9848 41.4449L51.7027 84.4415C49.3891 82.9601 46.6307 82.3599 43.9205 82.7484C41.2102 83.1368 38.7246 84.4884 36.9078 86.5618C35.0909 88.6351 34.0612 91.2951 34.0026 94.0665C33.9441 96.8379 34.8604 99.5401 36.588 101.69C38.3155 103.84 40.7418 105.299 43.4332 105.804C46.1245 106.31 48.9057 105.83 51.2797 104.45C53.6538 103.07 55.4661 100.88 56.3928 98.2719C57.3195 95.6636 57.3002 92.8066 56.3384 90.2113L56.3797 90.2047L49.17 44.0619L86.9294 31.9139L93.3481 69.9147C90.979 68.4958 88.1864 67.9832 85.4763 68.47C82.7662 68.9567 80.3179 70.4106 78.5753 72.5681C76.8327 74.7256 75.9109 77.444 75.9771 80.2305C76.0434 83.017 77.0932 85.6873 78.9363 87.7574C80.7794 89.8275 83.2939 91.1605 86.024 91.5147C88.7541 91.8688 91.5191 91.2208 93.818 89.688C96.1169 88.1553 97.7975 85.8392 98.5552 83.1595C99.3129 80.4799 99.0975 77.614 97.9482 75.0814Z" fill="white"/>
</svg>
