<svg width="227" height="245" viewBox="0 0 227 245" fill="none" xmlns="http://www.w3.org/2000/svg">
<g id="Group 42">
<path id="Vector" d="M113.342 245C175.94 245 226.685 236.024 226.685 224.95C226.685 213.877 175.94 204.901 113.342 204.901C50.7451 204.901 0 213.877 0 224.95C0 236.024 50.7451 245 113.342 245Z" fill="#D0CDE1"/>
<path id="Vector_2" d="M72.4399 58.8438C72.4399 58.8438 63.7312 83.3898 67.6017 92.1102C71.4723 100.83 77.6007 109.228 77.6007 109.228C77.6007 109.228 75.3429 60.4586 72.4399 58.8438Z" fill="#D0CDE1"/>
<path id="Vector_3" opacity="0.1" d="M72.4399 58.8438C72.4399 58.8438 63.7312 83.3898 67.6017 92.1102C71.4723 100.83 77.6007 109.228 77.6007 109.228C77.6007 109.228 75.3429 60.4586 72.4399 58.8438Z" fill="black"/>
<path id="Vector_4" d="M78.5686 115.687C78.5686 115.687 77.9235 121.824 77.6009 122.147C77.2784 122.47 77.9235 123.116 77.6009 124.085C77.2784 125.054 76.9558 126.346 77.6009 126.669C78.246 126.992 74.0529 155.413 74.0529 155.413C74.0529 155.413 63.7314 168.978 67.9245 190.295L69.2147 211.934C69.2147 211.934 79.2137 212.58 79.2137 209.027C79.2137 209.027 78.5686 204.829 78.5686 202.891C78.5686 200.953 80.1813 200.953 79.2137 199.984C78.246 199.015 78.246 198.369 78.246 198.369C78.246 198.369 79.8588 197.077 79.5362 196.754C79.2137 196.431 82.4391 173.5 82.4391 173.5C82.4391 173.5 85.9872 169.947 85.9872 168.009V166.072C85.9872 166.072 87.5999 161.873 87.5999 161.55C87.5999 161.227 96.3087 141.525 96.3087 141.525L99.8567 155.736L103.727 176.084C103.727 176.084 105.663 194.493 109.533 201.599C109.533 201.599 116.307 224.853 116.307 224.207C116.307 223.561 127.596 221.946 127.273 219.039C126.951 216.133 120.5 175.438 120.5 175.438L122.112 115.042L78.5686 115.687Z" fill="#713007"/>
<path id="Vector_5" d="M69.8596 210.319C69.8596 210.319 61.1508 227.437 66.9567 228.082C72.7626 228.728 75.0204 228.728 77.6008 226.145C79.0115 224.732 81.8682 222.837 84.1683 221.409C85.5311 220.576 86.632 219.376 87.3448 217.946C88.0576 216.516 88.3534 214.913 88.1982 213.322C88.0281 211.742 87.4385 210.44 85.987 210.319C82.1164 209.996 77.6008 206.443 77.6008 206.443L69.8596 210.319Z" fill="#0B0B0F"/>
<path id="Vector_6" d="M117.919 222.915C117.919 222.915 109.21 240.033 115.016 240.679C120.822 241.325 123.08 241.325 125.66 238.741C127.071 237.328 129.928 235.433 132.228 234.005C133.591 233.173 134.692 231.972 135.404 230.542C136.117 229.112 136.413 227.509 136.258 225.918C136.088 224.338 135.498 223.036 134.047 222.915C130.176 222.592 125.66 219.039 125.66 219.039L117.919 222.915Z" fill="#0B0B0F"/>
<path id="Vector_7" d="M108.715 30.8311C116.203 30.8311 122.274 24.7526 122.274 17.2544C122.274 9.75622 116.203 3.67773 108.715 3.67773C101.227 3.67773 95.1562 9.75622 95.1562 17.2544C95.1562 24.7526 101.227 30.8311 108.715 30.8311Z" fill="#986748"/>
<path id="Vector_8" d="M99.9987 21.7153C99.9987 21.7153 90.3139 39.5589 89.5392 39.5589C88.7644 39.5589 106.972 45.3775 106.972 45.3775C106.972 45.3775 112.008 28.3097 112.783 26.7581L99.9987 21.7153Z" fill="#986748"/>
<path id="Vector_9" d="M114.855 41.2416C114.855 41.2416 95.5022 30.5834 93.5669 30.9064C91.6316 31.2293 70.9886 49.3159 71.3111 56.7444C71.6337 64.1728 74.214 76.4458 74.214 76.4458C74.214 76.4458 75.1817 110.681 77.117 111.004C79.0522 111.327 76.7944 117.141 77.4395 117.141C78.0846 117.141 122.596 117.141 122.919 116.172C123.241 115.203 114.855 41.2416 114.855 41.2416Z" fill="#D0CDE1"/>
<path id="Vector_10" d="M125.66 117.948C125.66 117.948 131.789 136.681 126.628 136.035C121.467 135.389 119.209 119.886 119.209 119.886L125.66 117.948Z" fill="#986748"/>
<path id="Vector_11" d="M109.21 40.1112C109.21 40.1112 97.276 42.6949 99.2113 58.8437C101.147 74.9924 104.695 91.1412 104.695 91.1412L116.629 117.302L117.919 122.147L126.628 119.886L120.177 82.4209C120.177 82.4209 117.919 42.372 115.016 41.0801C113.186 40.2986 111.195 39.9664 109.21 40.1112V40.1112Z" fill="#D0CDE1"/>
<path id="Vector_12" opacity="0.1" d="M101.953 90.6569L116.79 117.141L104.29 89.2339L101.953 90.6569Z" fill="black"/>
<path id="Vector_13" d="M122.214 13.2568L122.258 12.2193L124.32 12.733C124.297 12.3999 124.203 12.0756 124.044 11.7825C123.885 11.4894 123.663 11.2344 123.396 11.0352L125.591 10.9122C123.749 8.2908 121.395 6.07044 118.672 4.38528C115.949 2.70012 112.913 1.58512 109.748 1.10761C104.999 0.41839 99.7109 1.41573 96.4544 4.94481C94.8749 6.65658 93.8824 8.83342 93.1764 11.0542C91.8761 15.1444 91.6111 20.0203 94.3225 23.345C97.0782 26.7241 101.892 27.386 106.228 27.8042C107.754 27.9514 109.353 28.0883 110.767 27.4954C110.925 25.8714 110.717 24.2326 110.16 22.6994C109.928 22.2247 109.817 21.6999 109.837 21.1717C110.03 19.8799 111.751 19.5544 113.043 19.7289C114.336 19.9035 115.891 20.1705 116.74 19.1792C117.325 18.4964 117.291 17.502 117.368 16.6056C117.579 14.1652 122.191 13.7684 122.214 13.2568Z" fill="#0B0B0F"/>
<path id="Vector_14" d="M205.376 227.709C214.101 227.709 221.174 220.627 221.174 211.89C221.174 203.154 214.101 196.071 205.376 196.071C196.65 196.071 189.577 203.154 189.577 211.89C189.577 220.627 196.65 227.709 205.376 227.709Z" fill="#FF6400"/>
<path id="Vector_15" d="M19.8394 222.191C28.5644 222.191 35.6375 215.109 35.6375 206.372C35.6375 197.635 28.5644 190.553 19.8394 190.553C11.1143 190.553 4.04126 197.635 4.04126 206.372C4.04126 215.109 11.1143 222.191 19.8394 222.191Z" fill="#FF6400"/>
<path id="Vector_16" d="M19.8395 196.807C26.1297 196.807 31.2289 191.701 31.2289 185.403C31.2289 179.104 26.1297 173.998 19.8395 173.998C13.5494 173.998 8.4502 179.104 8.4502 185.403C8.4502 191.701 13.5494 196.807 19.8395 196.807Z" fill="#FF8600"/>
<path id="Vector_17" d="M19.8396 175.838C24.3036 175.838 27.9223 172.214 27.9223 167.744C27.9223 163.274 24.3036 159.651 19.8396 159.651C15.3756 159.651 11.7568 163.274 11.7568 167.744C11.7568 172.214 15.3756 175.838 19.8396 175.838Z" fill="#FF8F13"/>
</g>
</svg>
