<svg width="21" height="21" viewBox="0 0 21 21" fill="none" xmlns="http://www.w3.org/2000/svg">
<g clip-path="url(#clip0)">
<path d="M10.4999 4.66667C11.8472 4.66667 13.0843 5.12794 14.0719 5.89505L17.1028 3.00341C15.3406 1.44996 13.0338 0.5 10.4999 0.5C6.66028 0.5 3.33051 2.6666 1.65479 5.84154L5.02515 8.50232C5.84159 6.26614 7.98118 4.66667 10.4999 4.66667Z" fill="#F44336"/>
<path d="M20.4134 11.7515C20.4655 11.3418 20.5 10.9239 20.5 10.5C20.5 9.78512 20.4219 9.08901 20.2794 8.41666H10.5V12.5833H15.9052C15.4679 13.7198 14.6894 14.6815 13.6983 15.3495L17.0812 18.0202C18.8745 16.4462 20.1016 14.242 20.4134 11.7515Z" fill="#2196F3"/>
<path d="M4.66667 10.5C4.66667 9.79714 4.79738 9.12636 5.0252 8.50233L1.65484 5.84155C0.920278 7.23336 0.5 8.81681 0.5 10.5C0.5 12.1644 0.912547 13.7303 1.63185 15.1108L5.00648 12.4466C4.79036 11.837 4.66667 11.1837 4.66667 10.5Z" fill="#FFC107"/>
<path d="M10.5 16.3333C7.96205 16.3333 5.80867 14.7096 5.00647 12.4466L1.63184 15.1108C3.29937 18.3112 6.6415 20.5 10.5 20.5C13.0231 20.5 15.324 19.5627 17.0812 18.0203L13.6983 15.3496C12.7843 15.9658 11.6903 16.3333 10.5 16.3333Z" fill="#00B060"/>
<path opacity="0.1" d="M10.5001 20.2917C7.55699 20.2917 4.91065 19.0774 3.03967 17.1428C4.87119 19.1982 7.53044 20.5 10.5001 20.5C13.4422 20.5 16.0794 19.2239 17.9068 17.2006C16.0414 19.1039 13.4151 20.2917 10.5001 20.2917Z" fill="black"/>
<path opacity="0.1" d="M10.5 12.375V12.5833H15.9052L15.9896 12.375H10.5Z" fill="black"/>
<path d="M20.4954 10.6225C20.4961 10.5815 20.5 10.5411 20.5 10.5C20.5 10.4883 20.4982 10.4771 20.4982 10.4655C20.4976 10.5179 20.495 10.5698 20.4954 10.6225Z" fill="#E6E6E6"/>
<path opacity="0.2" d="M10.5 8.41666V8.62499H20.3213C20.3082 8.55622 20.2939 8.48491 20.2794 8.41666H10.5Z" fill="#FEFEFE"/>
<path d="M20.2794 8.41667H10.5V12.5833H15.9052C15.0646 14.768 12.981 16.3333 10.5 16.3333C7.27836 16.3333 4.66667 13.7216 4.66667 10.5C4.66667 7.27831 7.27836 4.66667 10.5 4.66667C11.6682 4.66667 12.7449 5.02555 13.6571 5.61724C13.7967 5.70798 13.9408 5.79317 14.0719 5.89505L17.1029 3.00341L17.0345 2.95082C15.2808 1.43089 13.0029 0.5 10.5 0.5C4.97713 0.5 0.5 4.97713 0.5 10.5C0.5 16.0228 4.97713 20.5 10.5 20.5C15.5981 20.5 19.7962 16.6823 20.4134 11.7515C20.4655 11.3418 20.5 10.9239 20.5 10.5C20.5 9.78513 20.4219 9.08902 20.2794 8.41667Z" fill="url(#paint0_linear)"/>
<path opacity="0.1" d="M13.6571 5.40892C12.7449 4.81723 11.6682 4.45834 10.5 4.45834C7.27832 4.45834 4.66663 7.06999 4.66663 10.2917C4.66663 10.3268 4.6671 10.3543 4.66771 10.3893C4.72391 7.21627 7.31347 4.66668 10.5 4.66668C11.6682 4.66668 12.7449 5.02556 13.6571 5.61725C13.7967 5.70799 13.9407 5.79318 14.0719 5.89506L17.1028 3.00342L14.0719 5.68673C13.9407 5.58485 13.7967 5.49965 13.6571 5.40892Z" fill="black"/>
<path opacity="0.2" d="M10.5 0.708333C12.9792 0.708333 15.2358 1.62366 16.9827 3.118L17.1029 3.00341L17.0112 2.92356C15.2575 1.40363 13.0029 0.5 10.5 0.5C4.97713 0.5 0.5 4.97713 0.5 10.5C0.5 10.5351 0.504883 10.5691 0.505239 10.6042C0.561696 5.12987 5.01228 0.708333 10.5 0.708333Z" fill="#FEFEFE"/>
</g>
<defs>
<linearGradient id="paint0_linear" x1="0.5" y1="10.5" x2="20.5" y2="10.5" gradientUnits="userSpaceOnUse">
<stop stop-color="white" stop-opacity="0.2"/>
<stop offset="1" stop-color="white" stop-opacity="0"/>
</linearGradient>
<clipPath id="clip0">
<rect width="20" height="20" fill="white" transform="translate(0.5 0.5)"/>
</clipPath>
</defs>
</svg>
