<svg width="227" height="77" viewBox="0 0 227 77" fill="none" xmlns="http://www.w3.org/2000/svg">
<path fill-rule="evenodd" clip-rule="evenodd" d="M78.5 36.644C79.8333 37.4138 79.8333 39.3383 78.5 40.1081L15.5 76.4812C14.1667 77.251 12.5 76.2887 12.5 74.7491V64.7694L3.25001 70.1099C1.91668 70.8797 0.25 69.9175 0.25 68.3779V8.62213C0.25 7.08253 1.91667 6.12027 3.25 6.89007L12.5 12.2306V2.00299C12.5 0.463387 14.1667 -0.498868 15.5 0.270932L78.5 36.644ZM12.5 21.4682L8.25 19.0144V57.9856L12.5 55.5318V21.4682ZM20.5 50.913V26.087L42 38.5L20.5 50.913ZM20.5 60.1506L55 40.2321C56.3333 39.4622 56.3333 37.5378 55 36.7679L20.5 16.8494V12.3953L65.5 38.3761L20.5 64.3568V60.1506Z" fill="url(#paint0_linear)"/>
<path d="M112.324 27.936C114.436 27.936 115.897 28.5867 116.708 29.888C117.519 31.168 117.924 32.9494 117.924 35.232V43.424C117.924 43.9787 117.743 44.448 117.38 44.832C117.017 45.1947 116.559 45.376 116.004 45.376C115.449 45.376 114.991 45.1947 114.628 44.832C114.265 44.448 114.084 43.9787 114.084 43.424V35.232C114.084 34.0587 113.849 33.1414 113.38 32.48C112.932 31.7974 112.132 31.456 110.98 31.456C109.785 31.456 108.847 31.8187 108.164 32.544C107.503 33.248 107.172 34.144 107.172 35.232V43.424C107.172 43.9787 106.991 44.448 106.628 44.832C106.265 45.1947 105.807 45.376 105.252 45.376C104.697 45.376 104.239 45.1947 103.876 44.832C103.513 44.448 103.332 43.9787 103.332 43.424V35.232C103.332 34.0587 103.097 33.1414 102.628 32.48C102.18 31.7974 101.38 31.456 100.228 31.456C99.0333 31.456 98.0946 31.8187 97.412 32.544C96.7506 33.248 96.42 34.144 96.42 35.232V43.424C96.42 43.9787 96.2386 44.448 95.876 44.832C95.5133 45.1947 95.0546 45.376 94.5 45.376C93.9453 45.376 93.4866 45.1947 93.124 44.832C92.7613 44.448 92.58 43.9787 92.58 43.424V30.208C92.58 29.6534 92.7613 29.1947 93.124 28.832C93.4866 28.448 93.9453 28.256 94.5 28.256C95.0546 28.256 95.5133 28.448 95.876 28.832C96.2386 29.1947 96.42 29.6534 96.42 30.208V30.72C96.996 29.952 97.7213 29.3014 98.596 28.768C99.492 28.2134 100.484 27.936 101.572 27.936C104.26 27.936 105.977 29.1094 106.724 31.456C107.215 30.56 107.951 29.7494 108.932 29.024C109.935 28.2987 111.065 27.936 112.324 27.936Z" fill="#494D4B"/>
<path d="M134.784 28.256C135.339 28.256 135.797 28.448 136.16 28.832C136.523 29.1947 136.704 29.6534 136.704 30.208V38.336C136.704 40.64 136.064 42.4427 134.784 43.744C133.525 45.0454 131.723 45.696 129.376 45.696C127.029 45.696 125.227 45.0454 123.968 43.744C122.709 42.4427 122.08 40.64 122.08 38.336V30.208C122.08 29.6534 122.261 29.1947 122.624 28.832C122.987 28.448 123.445 28.256 124 28.256C124.555 28.256 125.013 28.448 125.376 28.832C125.739 29.1947 125.92 29.6534 125.92 30.208V38.336C125.92 39.6374 126.208 40.608 126.784 41.248C127.36 41.8667 128.224 42.176 129.376 42.176C130.549 42.176 131.424 41.8667 132 41.248C132.576 40.608 132.864 39.6374 132.864 38.336V30.208C132.864 29.6534 133.045 29.1947 133.408 28.832C133.771 28.448 134.229 28.256 134.784 28.256Z" fill="#494D4B"/>
<path d="M139.869 42.72C139.677 42.464 139.581 42.144 139.581 41.76C139.581 41.2054 139.859 40.736 140.413 40.352C140.712 40.16 141.021 40.064 141.341 40.064C141.789 40.064 142.216 40.2667 142.621 40.672C143.261 41.3334 143.923 41.824 144.605 42.144C145.309 42.464 146.152 42.624 147.133 42.624C148.797 42.56 149.629 41.9307 149.629 40.736C149.629 40.1174 149.341 39.648 148.765 39.328C148.211 39.008 147.336 38.688 146.141 38.368C144.904 38.0267 143.891 37.6854 143.101 37.344C142.333 37.0027 141.661 36.4907 141.085 35.808C140.531 35.104 140.253 34.1654 140.253 32.992C140.253 31.968 140.541 31.0827 141.117 30.336C141.715 29.568 142.483 28.9814 143.421 28.576C144.381 28.1494 145.395 27.936 146.461 27.936C147.549 27.936 148.637 28.1387 149.725 28.544C150.813 28.9494 151.667 29.5467 152.285 30.336C152.563 30.6774 152.701 31.0614 152.701 31.488C152.701 31.9787 152.499 32.384 152.093 32.704C151.795 32.9387 151.453 33.056 151.069 33.056C150.6 33.056 150.216 32.9067 149.917 32.608C149.533 32.1387 149.032 31.7654 148.413 31.488C147.816 31.2107 147.133 31.072 146.365 31.072C144.744 31.072 143.933 31.6587 143.933 32.832C143.933 33.3014 144.083 33.6854 144.381 33.984C144.68 34.2614 145.053 34.4854 145.501 34.656C145.971 34.8054 146.621 34.9974 147.453 35.232C148.605 35.552 149.565 35.8827 150.333 36.224C151.101 36.5654 151.752 37.088 152.285 37.792C152.819 38.496 153.085 39.424 153.085 40.576C153.085 41.6214 152.776 42.5387 152.157 43.328C151.539 44.096 150.739 44.6827 149.757 45.088C148.797 45.4934 147.805 45.696 146.781 45.696C145.373 45.696 144.061 45.4614 142.845 44.992C141.629 44.5227 140.637 43.7654 139.869 42.72Z" fill="#494D4B"/>
<path d="M159.915 43.424C159.915 43.9787 159.733 44.448 159.371 44.832C159.008 45.1947 158.549 45.376 157.995 45.376C157.44 45.376 156.981 45.1947 156.619 44.832C156.256 44.448 156.075 43.9787 156.075 43.424V30.208C156.075 29.6534 156.256 29.1947 156.619 28.832C156.981 28.448 157.44 28.256 157.995 28.256C158.549 28.256 159.008 28.448 159.371 28.832C159.733 29.1947 159.915 29.6534 159.915 30.208V43.424ZM157.963 26.176C157.237 26.176 156.725 26.0587 156.427 25.824C156.128 25.5894 155.979 25.1734 155.979 24.576V23.968C155.979 23.3707 156.139 22.9547 156.459 22.72C156.779 22.4854 157.291 22.368 157.995 22.368C158.741 22.368 159.264 22.4854 159.563 22.72C159.861 22.9547 160.011 23.3707 160.011 23.968V24.576C160.011 25.1947 159.851 25.6214 159.531 25.856C159.232 26.0694 158.709 26.176 157.963 26.176Z" fill="#494D4B"/>
<path d="M172.085 25.088C171.36 25.088 170.848 25.3014 170.549 25.728C170.251 26.1334 170.101 26.5814 170.101 27.072V28.576H173.013C173.525 28.576 173.952 28.7467 174.293 29.088C174.635 29.408 174.805 29.824 174.805 30.336C174.805 30.848 174.635 31.2747 174.293 31.616C173.952 31.936 173.525 32.096 173.013 32.096H170.101V43.424C170.101 43.9787 169.92 44.448 169.557 44.832C169.195 45.1947 168.736 45.376 168.181 45.376C167.627 45.376 167.168 45.1947 166.805 44.832C166.443 44.448 166.261 43.9787 166.261 43.424V32.096H164.533C164.021 32.096 163.595 31.936 163.253 31.616C162.912 31.2747 162.741 30.848 162.741 30.336C162.741 29.824 162.912 29.408 163.253 29.088C163.595 28.7467 164.021 28.576 164.533 28.576H166.261V27.104C166.261 25.504 166.805 24.2027 167.893 23.2C169.003 22.1974 170.592 21.696 172.661 21.696C173.451 21.696 174.133 21.856 174.709 22.176C175.307 22.496 175.605 22.9867 175.605 23.648C175.605 24.16 175.456 24.576 175.157 24.896C174.859 25.216 174.496 25.376 174.069 25.376C173.963 25.376 173.845 25.3654 173.717 25.344C173.611 25.3227 173.493 25.3014 173.365 25.28C172.853 25.152 172.427 25.088 172.085 25.088Z" fill="#494D4B"/>
<path d="M191.061 27.936C191.616 27.936 192.074 28.1174 192.437 28.48C192.8 28.8427 192.981 29.312 192.981 29.888V43.424C192.981 43.9787 192.8 44.448 192.437 44.832C192.074 45.1947 191.616 45.376 191.061 45.376C190.506 45.376 190.048 45.1947 189.685 44.832C189.344 44.4694 189.162 44.0107 189.141 43.456C188.608 44.0747 187.882 44.608 186.965 45.056C186.069 45.4827 185.12 45.696 184.117 45.696C182.645 45.696 181.312 45.3227 180.117 44.576C178.922 43.808 177.973 42.752 177.269 41.408C176.586 40.064 176.245 38.5387 176.245 36.832C176.245 35.1254 176.586 33.6 177.269 32.256C177.952 30.8907 178.88 29.8347 180.053 29.088C181.248 28.32 182.56 27.936 183.989 27.936C185.013 27.936 185.973 28.128 186.869 28.512C187.765 28.8747 188.522 29.344 189.141 29.92V29.888C189.141 29.3334 189.322 28.8747 189.685 28.512C190.048 28.128 190.506 27.936 191.061 27.936ZM184.597 42.176C185.984 42.176 187.114 41.6747 187.989 40.672C188.864 39.648 189.301 38.368 189.301 36.832C189.301 35.296 188.864 34.016 187.989 32.992C187.114 31.968 185.984 31.456 184.597 31.456C183.232 31.456 182.112 31.968 181.237 32.992C180.362 34.016 179.925 35.296 179.925 36.832C179.925 38.368 180.352 39.648 181.205 40.672C182.08 41.6747 183.21 42.176 184.597 42.176Z" fill="#494D4B"/>
<path d="M209.919 28.288C210.431 28.288 210.858 28.4587 211.199 28.8C211.541 29.12 211.711 29.5254 211.711 30.016C211.711 30.272 211.626 30.592 211.455 30.976L205.471 44.16C205.322 44.5227 205.098 44.8107 204.799 45.024C204.522 45.2374 204.202 45.3547 203.839 45.376L203.551 45.408C203.189 45.408 202.847 45.3014 202.527 45.088C202.229 44.8534 201.994 44.544 201.823 44.16L195.871 30.976C195.722 30.6347 195.647 30.2934 195.647 29.952C195.647 29.5254 195.829 29.1414 196.191 28.8C196.554 28.4374 197.002 28.256 197.535 28.256C197.941 28.256 198.314 28.3627 198.655 28.576C198.997 28.7894 199.253 29.088 199.423 29.472L203.839 39.584L208.223 29.504C208.394 29.0987 208.629 28.7894 208.927 28.576C209.226 28.3627 209.557 28.2667 209.919 28.288Z" fill="#494D4B"/>
<path d="M213.588 42.72C213.396 42.464 213.3 42.144 213.3 41.76C213.3 41.2054 213.577 40.736 214.132 40.352C214.431 40.16 214.74 40.064 215.06 40.064C215.508 40.064 215.935 40.2667 216.34 40.672C216.98 41.3334 217.641 41.824 218.324 42.144C219.028 42.464 219.871 42.624 220.852 42.624C222.516 42.56 223.348 41.9307 223.348 40.736C223.348 40.1174 223.06 39.648 222.484 39.328C221.929 39.008 221.055 38.688 219.86 38.368C218.623 38.0267 217.609 37.6854 216.82 37.344C216.052 37.0027 215.38 36.4907 214.804 35.808C214.249 35.104 213.972 34.1654 213.972 32.992C213.972 31.968 214.26 31.0827 214.836 30.336C215.433 29.568 216.201 28.9814 217.14 28.576C218.1 28.1494 219.113 27.936 220.18 27.936C221.268 27.936 222.356 28.1387 223.444 28.544C224.532 28.9494 225.385 29.5467 226.004 30.336C226.281 30.6774 226.42 31.0614 226.42 31.488C226.42 31.9787 226.217 32.384 225.812 32.704C225.513 32.9387 225.172 33.056 224.788 33.056C224.319 33.056 223.935 32.9067 223.636 32.608C223.252 32.1387 222.751 31.7654 222.132 31.488C221.535 31.2107 220.852 31.072 220.084 31.072C218.463 31.072 217.652 31.6587 217.652 32.832C217.652 33.3014 217.801 33.6854 218.1 33.984C218.399 34.2614 218.772 34.4854 219.22 34.656C219.689 34.8054 220.34 34.9974 221.172 35.232C222.324 35.552 223.284 35.8827 224.052 36.224C224.82 36.5654 225.471 37.088 226.004 37.792C226.537 38.496 226.804 39.424 226.804 40.576C226.804 41.6214 226.495 42.5387 225.876 43.328C225.257 44.096 224.457 44.6827 223.476 45.088C222.516 45.4934 221.524 45.696 220.5 45.696C219.092 45.696 217.78 45.4614 216.564 44.992C215.348 44.5227 214.356 43.7654 213.588 42.72Z" fill="#494D4B"/>
<defs>
<linearGradient id="paint0_linear" x1="33" y1="25.876" x2="42" y2="58.876" gradientUnits="userSpaceOnUse">
<stop stop-color="#FFA800"/>
<stop offset="1" stop-color="#FF6400"/>
</linearGradient>
</defs>
</svg>
