<svg width="211" height="77" viewBox="0 0 211 77" fill="none" xmlns="http://www.w3.org/2000/svg">
<path fill-rule="evenodd" clip-rule="evenodd" d="M78.25 36.644C79.5833 37.4138 79.5833 39.3383 78.25 40.1081L15.25 76.4812C13.9167 77.251 12.25 76.2887 12.25 74.7491V64.7694L3.00001 70.1099C1.66668 70.8797 0 69.9175 0 68.3779V8.62213C0 7.08253 1.66667 6.12027 3 6.89007L12.25 12.2306V2.00299C12.25 0.463387 13.9167 -0.498868 15.25 0.270932L78.25 36.644ZM12.25 21.4682L8 19.0144V57.9856L12.25 55.5318V21.4682ZM20.25 50.913V26.087L41.75 38.5L20.25 50.913ZM20.25 60.1506L54.75 40.2321C56.0833 39.4622 56.0833 37.5378 54.75 36.7679L20.25 16.8494V12.3953L65.25 38.3761L20.25 64.3568V60.1506Z" fill="url(#paint0_linear)"/>
<path d="M103.197 29.444C102.426 29.444 101.882 29.6707 101.565 30.124C101.248 30.5547 101.089 31.0307 101.089 31.552V33.15H104.183C104.727 33.15 105.18 33.3313 105.543 33.694C105.906 34.034 106.087 34.476 106.087 35.02C106.087 35.564 105.906 36.0173 105.543 36.38C105.18 36.72 104.727 36.89 104.183 36.89H101.089V48.926C101.089 49.5153 100.896 50.014 100.511 50.422C100.126 50.8073 99.6383 51 99.049 51C98.4597 51 97.9723 50.8073 97.587 50.422C97.2017 50.014 97.009 49.5153 97.009 48.926V36.89H95.173C94.629 36.89 94.1757 36.72 93.813 36.38C93.4503 36.0173 93.269 35.564 93.269 35.02C93.269 34.476 93.4503 34.034 93.813 33.694C94.1757 33.3313 94.629 33.15 95.173 33.15H97.009V31.586C97.009 29.886 97.587 28.5033 98.743 27.438C99.9217 26.3727 101.61 25.84 103.809 25.84C104.648 25.84 105.373 26.01 105.985 26.35C106.62 26.69 106.937 27.2113 106.937 27.914C106.937 28.458 106.778 28.9 106.461 29.24C106.144 29.58 105.758 29.75 105.305 29.75C105.192 29.75 105.067 29.7387 104.931 29.716C104.818 29.6933 104.693 29.6707 104.557 29.648C104.013 29.512 103.56 29.444 103.197 29.444Z" fill="#494D4B"/>
<path d="M123.359 32.47C123.948 32.47 124.435 32.6627 124.821 33.048C125.206 33.4333 125.399 33.932 125.399 34.544V48.926C125.399 49.5153 125.206 50.014 124.821 50.422C124.435 50.8073 123.948 51 123.359 51C122.769 51 122.282 50.8073 121.897 50.422C121.534 50.0367 121.341 49.5493 121.319 48.96C120.752 49.6173 119.981 50.184 119.007 50.66C118.055 51.1133 117.046 51.34 115.981 51.34C114.417 51.34 113 50.9433 111.731 50.15C110.461 49.334 109.453 48.212 108.705 46.784C107.979 45.356 107.617 43.7353 107.617 41.922C107.617 40.1087 107.979 38.488 108.705 37.06C109.43 35.6093 110.416 34.4873 111.663 33.694C112.932 32.878 114.326 32.47 115.845 32.47C116.933 32.47 117.953 32.674 118.905 33.082C119.857 33.4673 120.661 33.966 121.319 34.578V34.544C121.319 33.9547 121.511 33.4673 121.897 33.082C122.282 32.674 122.769 32.47 123.359 32.47ZM116.491 47.6C117.964 47.6 119.165 47.0673 120.095 46.002C121.024 44.914 121.489 43.554 121.489 41.922C121.489 40.29 121.024 38.93 120.095 37.842C119.165 36.754 117.964 36.21 116.491 36.21C115.04 36.21 113.85 36.754 112.921 37.842C111.991 38.93 111.527 40.29 111.527 41.922C111.527 43.554 111.98 44.914 112.887 46.002C113.816 47.0673 115.017 47.6 116.491 47.6Z" fill="#494D4B"/>
<path d="M143.396 32.844C143.94 32.844 144.393 33.0253 144.756 33.388C145.119 33.728 145.3 34.1587 145.3 34.68C145.3 34.952 145.209 35.292 145.028 35.7L138.67 49.708C138.511 50.0933 138.273 50.3993 137.956 50.626C137.661 50.8527 137.321 50.9773 136.936 51L136.63 51.034C136.245 51.034 135.882 50.9207 135.542 50.694C135.225 50.4447 134.975 50.116 134.794 49.708L128.47 35.7C128.311 35.3373 128.232 34.9747 128.232 34.612C128.232 34.1587 128.425 33.7507 128.81 33.388C129.195 33.0027 129.671 32.81 130.238 32.81C130.669 32.81 131.065 32.9233 131.428 33.15C131.791 33.3767 132.063 33.694 132.244 34.102L136.936 44.846L141.594 34.136C141.775 33.7053 142.025 33.3767 142.342 33.15C142.659 32.9233 143.011 32.8213 143.396 32.844Z" fill="#494D4B"/>
<path d="M147.294 48.178C147.09 47.906 146.988 47.566 146.988 47.158C146.988 46.5687 147.282 46.07 147.872 45.662C148.189 45.458 148.518 45.356 148.858 45.356C149.334 45.356 149.787 45.5713 150.218 46.002C150.898 46.7047 151.6 47.226 152.326 47.566C153.074 47.906 153.969 48.076 155.012 48.076C156.78 48.008 157.664 47.3393 157.664 46.07C157.664 45.4127 157.358 44.914 156.746 44.574C156.156 44.234 155.227 43.894 153.958 43.554C152.643 43.1913 151.566 42.8287 150.728 42.466C149.912 42.1033 149.198 41.5593 148.586 40.834C147.996 40.086 147.702 39.0887 147.702 37.842C147.702 36.754 148.008 35.8133 148.62 35.02C149.254 34.204 150.07 33.5807 151.068 33.15C152.088 32.6967 153.164 32.47 154.298 32.47C155.454 32.47 156.61 32.6853 157.766 33.116C158.922 33.5467 159.828 34.1813 160.486 35.02C160.78 35.3827 160.928 35.7907 160.928 36.244C160.928 36.7653 160.712 37.196 160.282 37.536C159.964 37.7853 159.602 37.91 159.194 37.91C158.695 37.91 158.287 37.7513 157.97 37.434C157.562 36.9353 157.029 36.5387 156.372 36.244C155.737 35.9493 155.012 35.802 154.196 35.802C152.473 35.802 151.612 36.4253 151.612 37.672C151.612 38.1707 151.77 38.5787 152.088 38.896C152.405 39.1907 152.802 39.4287 153.278 39.61C153.776 39.7687 154.468 39.9727 155.352 40.222C156.576 40.562 157.596 40.9133 158.412 41.276C159.228 41.6387 159.919 42.194 160.486 42.942C161.052 43.69 161.336 44.676 161.336 45.9C161.336 47.0107 161.007 47.9853 160.35 48.824C159.692 49.64 158.842 50.2633 157.8 50.694C156.78 51.1247 155.726 51.34 154.638 51.34C153.142 51.34 151.748 51.0907 150.456 50.592C149.164 50.0933 148.11 49.2887 147.294 48.178Z" fill="#494D4B"/>
<path d="M173.522 47.158C173.839 47.158 174.123 47.3167 174.372 47.634C174.644 47.9287 174.78 48.3253 174.78 48.824C174.78 49.436 174.44 49.9573 173.76 50.388C173.103 50.796 172.355 51 171.516 51C170.111 51 168.921 50.7053 167.946 50.116C166.994 49.504 166.518 48.2233 166.518 46.274V36.89H164.954C164.41 36.89 163.957 36.7087 163.594 36.346C163.231 35.9833 163.05 35.53 163.05 34.986C163.05 34.4647 163.231 34.034 163.594 33.694C163.957 33.3313 164.41 33.15 164.954 33.15H166.518V30.974C166.518 30.3847 166.711 29.8973 167.096 29.512C167.504 29.104 168.003 28.9 168.592 28.9C169.159 28.9 169.635 29.104 170.02 29.512C170.405 29.8973 170.598 30.3847 170.598 30.974V33.15H173.012C173.556 33.15 174.009 33.3313 174.372 33.694C174.735 34.0567 174.916 34.51 174.916 35.054C174.916 35.5753 174.735 36.0173 174.372 36.38C174.009 36.72 173.556 36.89 173.012 36.89H170.598V46.104C170.598 46.58 170.723 46.9313 170.972 47.158C171.221 47.362 171.561 47.464 171.992 47.464C172.173 47.464 172.423 47.4187 172.74 47.328C173.012 47.2147 173.273 47.158 173.522 47.158Z" fill="#494D4B"/>
<path d="M194.816 41.48C194.793 42.024 194.578 42.466 194.17 42.806C193.762 43.146 193.286 43.316 192.742 43.316H181.522C181.794 44.6533 182.417 45.7073 183.392 46.478C184.367 47.226 185.466 47.6 186.69 47.6C187.619 47.6 188.345 47.5207 188.866 47.362C189.387 47.1807 189.795 46.9993 190.09 46.818C190.407 46.614 190.623 46.478 190.736 46.41C191.144 46.206 191.529 46.104 191.892 46.104C192.368 46.104 192.776 46.274 193.116 46.614C193.456 46.954 193.626 47.3507 193.626 47.804C193.626 48.416 193.309 48.9713 192.674 49.47C192.039 49.9913 191.189 50.4333 190.124 50.796C189.059 51.1587 187.982 51.34 186.894 51.34C184.99 51.34 183.324 50.9433 181.896 50.15C180.491 49.3567 179.403 48.2687 178.632 46.886C177.861 45.4807 177.476 43.9053 177.476 42.16C177.476 40.2107 177.884 38.4993 178.7 37.026C179.516 35.5527 180.593 34.4307 181.93 33.66C183.267 32.8667 184.695 32.47 186.214 32.47C187.71 32.47 189.115 32.878 190.43 33.694C191.767 34.51 192.833 35.6093 193.626 36.992C194.419 38.3747 194.816 39.8707 194.816 41.48ZM186.214 36.21C183.585 36.21 182.032 37.4453 181.556 39.916H190.464V39.678C190.373 38.726 189.909 37.91 189.07 37.23C188.231 36.55 187.279 36.21 186.214 36.21Z" fill="#494D4B"/>
<path d="M207.671 32.47C208.351 32.47 208.917 32.6627 209.371 33.048C209.847 33.4333 210.085 33.8867 210.085 34.408C210.085 35.1107 209.903 35.6433 209.541 36.006C209.178 36.346 208.747 36.516 208.249 36.516C207.909 36.516 207.523 36.4367 207.093 36.278C207.025 36.2553 206.866 36.21 206.617 36.142C206.39 36.074 206.141 36.04 205.869 36.04C205.279 36.04 204.713 36.2213 204.169 36.584C203.625 36.9467 203.171 37.502 202.809 38.25C202.469 38.9753 202.299 39.848 202.299 40.868V48.926C202.299 49.5153 202.106 50.014 201.721 50.422C201.335 50.8073 200.848 51 200.259 51C199.669 51 199.182 50.8073 198.797 50.422C198.411 50.014 198.219 49.5153 198.219 48.926V34.884C198.219 34.2947 198.411 33.8073 198.797 33.422C199.182 33.014 199.669 32.81 200.259 32.81C200.848 32.81 201.335 33.014 201.721 33.422C202.106 33.8073 202.299 34.2947 202.299 34.884V35.326C202.82 34.3967 203.568 33.694 204.543 33.218C205.517 32.7193 206.56 32.47 207.671 32.47Z" fill="#494D4B"/>
<defs>
<linearGradient id="paint0_linear" x1="32.75" y1="25.876" x2="41.75" y2="58.876" gradientUnits="userSpaceOnUse">
<stop stop-color="#FFA800"/>
<stop offset="1" stop-color="#FF6400"/>
</linearGradient>
</defs>
</svg>
