<svg width="29" height="28" viewBox="0 0 29 28" fill="none" xmlns="http://www.w3.org/2000/svg">
<path fill-rule="evenodd" clip-rule="evenodd" d="M28.6341 13.3681C29.122 13.649 29.122 14.351 28.6341 14.6319L5.58044 27.9012C5.09254 28.182 4.48265 27.831 4.48265 27.2693V23.6286L1.09779 25.5769C0.609888 25.8577 0 25.5067 0 24.945V3.14545C0 2.58378 0.609885 2.23274 1.09779 2.51357L4.48265 4.46184V0.730711C4.48265 0.169049 5.09253 -0.181993 5.58044 0.0988391L28.6341 13.3681ZM4.48265 7.83182L2.92744 6.93667V21.1538L4.48265 20.2586V7.83182ZM7.41009 18.5736V9.51681L15.2776 14.0452L7.41009 18.5736ZM7.41009 21.9436L20.0347 14.6771C20.5226 14.3963 20.5226 13.6942 20.0347 13.4133L7.41009 6.14683V4.52194L23.877 14L7.41009 23.4781V21.9436Z" fill="url(#paint0_linear)"/>
<defs>
<linearGradient id="paint0_linear" x1="11.9842" y1="9.43986" x2="15.2589" y2="21.4837" gradientUnits="userSpaceOnUse">
<stop stop-color="white"/>
<stop offset="1" stop-color="#E6E8EB"/>
</linearGradient>
</defs>
</svg>
